<svg width="320" height="320" viewBox="0 0 320 320" fill="none" xmlns="http://www.w3.org/2000/svg">
<g filter="url(#filter0_di_2009_222)">
<path d="M207.423 25.1883C183.938 24.3608 161.009 32.4439 143.235 47.816C125.461 63.1882 114.156 84.7126 111.589 108.071C93.7748 108.766 76.5343 114.56 61.9163 124.765C47.2983 134.97 35.9173 149.158 29.1256 165.641C22.334 182.125 20.4172 200.211 23.603 217.752C26.7888 235.293 34.9433 251.551 47.0976 264.593C59.2519 277.636 74.8949 286.915 92.1679 291.328C109.441 295.741 127.618 295.102 144.539 289.488C161.459 283.874 176.413 273.52 187.622 259.657C198.831 245.794 205.825 229.004 207.772 211.283C231.847 210.339 254.618 200.099 271.301 182.717C287.985 165.334 297.28 142.161 297.235 118.068C297.19 93.9743 287.807 70.8365 271.059 53.5163C254.311 36.1962 231.501 26.0423 207.423 25.1883ZM206.502 182.671C203.08 165.81 195.061 150.223 183.332 137.637C171.602 125.05 156.619 115.953 140.041 111.353C141.363 99.0698 146.187 87.4249 153.939 77.805C161.691 68.1851 172.044 60.9953 183.765 57.0918C195.487 53.1882 208.084 52.7353 220.055 55.7868C232.027 58.8384 242.87 65.2659 251.292 74.3042C259.715 83.3425 265.363 94.6108 267.564 106.768C269.765 118.925 268.427 131.458 263.707 142.876C258.988 154.293 251.087 164.114 240.945 171.169C230.803 178.225 218.848 182.217 206.502 182.671ZM179.641 203.382C179.038 220.468 171.673 236.615 159.166 248.271C146.659 259.927 130.033 266.136 112.947 265.534C95.8615 264.932 79.7146 257.567 68.059 245.059C56.4033 232.552 50.1936 215.926 50.7959 198.841C51.3982 181.755 58.7631 165.608 71.2706 153.952C83.778 142.297 100.403 136.087 117.489 136.689C134.575 137.291 150.722 144.656 162.378 157.164C174.033 169.671 180.243 186.297 179.641 203.382ZM33.359 83.5549C33.8943 68.3674 40.441 54.0147 51.5587 43.6541C62.6764 33.2935 77.4545 27.7737 92.6419 28.3091L114.116 29.0661L113.107 57.6983L91.6326 56.9413C84.0389 56.6736 76.6499 59.4335 71.091 64.6138C65.5322 69.7941 62.2588 76.9704 61.9911 84.5642L61.2342 106.038L32.602 105.029L33.359 83.5549ZM257.37 234.79L258.127 213.316L286.759 214.325L286.002 235.8C285.467 250.987 278.92 265.34 267.802 275.7C256.685 286.061 241.907 291.581 226.719 291.045L205.245 290.288L206.254 261.656L227.728 262.413C235.322 262.681 242.711 259.921 248.27 254.741C253.829 249.56 257.102 242.384 257.37 234.79Z" fill="#E84341"/>
<path d="M206.502 182.671C203.08 165.81 195.061 150.223 183.332 137.637C171.602 125.05 156.619 115.953 140.041 111.353C141.363 99.0698 146.187 87.4249 153.939 77.805C161.691 68.1851 172.044 60.9953 183.765 57.0918C195.487 53.1882 208.084 52.7353 220.055 55.7868C232.027 58.8384 242.87 65.2659 251.292 74.3042C259.715 83.3425 265.363 94.6108 267.564 106.768C269.765 118.925 268.427 131.458 263.707 142.876C258.988 154.293 251.087 164.114 240.945 171.169C230.803 178.225 218.848 182.217 206.502 182.671Z" fill="#E84341"/>
<path d="M179.641 203.382C179.038 220.468 171.673 236.615 159.166 248.271C146.659 259.927 130.033 266.136 112.947 265.534C95.8615 264.932 79.7146 257.567 68.059 245.059C56.4033 232.552 50.1936 215.926 50.7959 198.841C51.3982 181.755 58.7631 165.608 71.2706 153.952C83.778 142.297 100.403 136.087 117.489 136.689C134.575 137.291 150.722 144.656 162.378 157.164C174.033 169.671 180.243 186.297 179.641 203.382Z" fill="#E84341"/>
<path d="M115.303 112.057L111.75 112.195C94.7251 112.859 78.2488 118.396 64.2787 128.149C50.3085 137.902 39.4319 151.46 32.9413 167.213C26.4506 182.966 24.6188 200.251 27.6634 217.015C30.708 233.778 38.5011 249.315 50.1167 261.78C61.7323 274.244 76.682 283.112 93.1894 287.329C109.697 291.547 127.068 290.937 143.239 285.571C159.41 280.206 173.7 270.311 184.413 257.062C195.125 243.814 201.809 227.768 203.67 210.832L204.058 207.299L207.61 207.159C230.618 206.257 252.38 196.471 268.324 179.859C284.268 163.247 293.151 141.101 293.108 118.075C293.065 95.0499 284.098 72.9376 268.093 56.3851C252.087 39.8328 230.288 30.1289 207.278 29.3126L115.303 112.057ZM115.303 112.057L115.691 108.522M115.303 112.057L115.691 108.522M115.691 108.522C118.145 86.1987 128.948 65.6283 145.934 50.9374C162.92 36.2468 184.833 28.522 207.277 29.3125L115.691 108.522ZM202.457 183.491L203.153 186.924L206.653 186.795C219.79 186.312 232.511 182.064 243.302 174.557C254.093 167.05 262.5 156.601 267.521 144.452C272.543 132.303 273.967 118.968 271.625 106.033C269.283 93.0973 263.274 81.1076 254.312 71.4907C245.35 61.8738 233.813 55.0348 221.075 51.7879C208.336 48.5409 194.934 49.0229 182.462 53.1764C169.989 57.3298 158.974 64.9798 150.726 75.2156C142.477 85.4514 137.344 97.8418 135.938 110.912L135.563 114.394L138.938 115.33C154.782 119.726 169.102 128.42 180.313 140.45C191.523 152.48 199.187 167.376 202.457 183.491ZM238.589 167.782C230.034 173.733 220.1 177.356 209.762 178.324C205.832 162.073 197.778 147.085 186.351 134.823C174.924 122.561 160.541 113.471 144.606 108.407C146.3 98.1631 150.613 88.5091 157.152 80.3944C164.408 71.3903 174.098 64.6609 185.069 61.0072C196.041 57.3536 207.831 56.9296 219.036 59.7858C230.241 62.642 240.39 68.658 248.273 77.1177C256.157 85.5774 261.443 96.1243 263.503 107.503C265.564 118.882 264.31 130.612 259.893 141.299C255.476 151.986 248.081 161.178 238.589 167.782ZM175.516 203.237C174.953 219.229 168.059 234.342 156.353 245.252C144.646 256.161 129.085 261.973 113.093 261.41C97.1007 260.846 81.9875 253.952 71.0781 242.246C60.1686 230.539 54.3564 214.978 54.9201 198.986C55.4839 182.994 62.3773 167.881 74.0841 156.971C85.7908 146.062 101.352 140.25 117.344 140.813C133.336 141.377 148.449 148.271 159.359 159.977C170.268 171.684 176.08 187.245 175.516 203.237ZM161.98 251.29C175.288 238.888 183.124 221.708 183.765 203.528C184.406 185.348 177.799 167.658 165.397 154.35C152.995 141.042 135.814 133.206 117.635 132.565C99.4549 131.924 81.7652 138.531 68.4571 150.933C55.1489 163.335 47.3124 180.515 46.6716 198.695C46.0307 216.875 52.638 234.565 65.0399 247.873C77.4417 261.181 94.6223 269.017 112.802 269.658C130.982 270.299 148.671 263.692 161.98 251.29ZM37.4832 83.7002C37.98 69.6066 44.0552 56.2876 54.3722 46.6732C64.6892 37.0588 78.4029 31.9366 92.4966 32.4334L109.846 33.045L109.128 53.4286L91.778 52.817C83.0905 52.5108 74.6371 55.6682 68.2775 61.5947C61.9179 67.5212 58.1731 75.7312 57.8669 84.4188L57.2553 101.769L36.8716 101.05L37.4832 83.7002ZM261.494 234.936L262.106 217.586L282.489 218.304L281.878 235.654C281.381 249.748 275.306 263.067 264.989 272.681C254.672 282.296 240.958 287.418 226.865 286.921L209.515 286.309L210.233 265.926L227.583 266.537C236.271 266.844 244.724 263.686 251.084 257.76C257.443 251.833 261.188 243.623 261.494 234.936Z" stroke="black" stroke-width="8.25367"/>
</g>
<path d="M99.4425 156.95C105.18 156.333 111.007 162.748 112.444 171.367C113.884 179.938 110.469 187.423 104.73 188.087C99.0394 188.753 93.1642 182.336 91.6782 173.716C90.1905 165.143 93.7016 157.662 99.4425 156.95ZM134.032 158.169C139.756 159.285 142.679 166.994 140.684 175.443C138.542 183.936 132.274 189.924 126.597 188.858C120.87 187.789 117.996 180.083 120.088 171.637C122.133 163.141 128.401 157.152 134.032 158.169ZM72.7754 178.152C78.374 175.99 85.7205 180.533 89.3743 188.123C92.7811 195.849 91.2399 203.785 85.6896 205.948C80.1394 208.111 72.8396 203.617 69.2859 195.935C65.7323 188.252 67.372 180.272 72.7754 178.152ZM159.854 181.221C165.093 183.716 166.163 191.793 162.073 199.206C157.983 206.619 150.382 210.587 145 208.038C139.617 205.49 138.642 197.465 142.589 189.999C146.772 182.686 154.422 178.671 159.854 181.221ZM149.934 232.761C149.967 237.287 146.306 242.164 142.079 243.892C133.28 247.529 123.314 238.995 113.687 238.656C104.06 238.316 93.4053 246.461 85.0429 241.882C80.2889 239.356 77.1729 232.988 77.9862 227.818C79.1115 220.686 87.9075 217.145 93.2216 212.086C100.283 205.548 105.574 192.978 115.297 193.321C124.973 193.662 129.655 206.39 135.938 213.591C141.1 219.646 149.874 224.913 149.934 232.761Z" fill="black"/>
<defs>
<filter id="filter0_di_2009_222" x="18.104" y="21.1305" width="281.24" height="283.412" filterUnits="userSpaceOnUse" color-interpolation-filters="sRGB">
<feFlood flood-opacity="0" result="BackgroundImageFix"/>
<feColorMatrix in="SourceAlpha" type="matrix" values="0 0 0 0 0 0 0 0 0 0 0 0 0 0 0 0 0 0 127 0" result="hardAlpha"/>
<feOffset dx="2.10832" dy="10.3171"/>
<feComposite in2="hardAlpha" operator="out"/>
<feColorMatrix type="matrix" values="0 0 0 0 0 0 0 0 0 0 0 0 0 0 0 0 0 0 1 0"/>
<feBlend mode="normal" in2="BackgroundImageFix" result="effect1_dropShadow_2009_222"/>
<feBlend mode="normal" in="SourceGraphic" in2="effect1_dropShadow_2009_222" result="shape"/>
<feColorMatrix in="SourceAlpha" type="matrix" values="0 0 0 0 0 0 0 0 0 0 0 0 0 0 0 0 0 0 127 0" result="hardAlpha"/>
<feOffset dx="-13" dy="-12"/>
<feGaussianBlur stdDeviation="2"/>
<feComposite in2="hardAlpha" operator="arithmetic" k2="-1" k3="1"/>
<feColorMatrix type="matrix" values="0 0 0 0 0 0 0 0 0 0 0 0 0 0 0 0 0 0 0.45 0"/>
<feBlend mode="normal" in2="shape" result="effect2_innerShadow_2009_222"/>
</filter>
</defs>
</svg>
