<svg width="223" height="518" viewBox="0 0 223 518" fill="none" xmlns="http://www.w3.org/2000/svg">
<g filter="url(#filter0_di_2009_140)">
<g filter="url(#filter1_d_2009_140)">
<path d="M97.835 408.346L95.9943 382.023C84.4732 382.15 73.5798 381.556 63.3141 380.239C53.0327 378.697 44.1665 376.378 36.7154 373.282L33.1757 322.661C43.6301 326.678 55.1466 329.716 67.725 331.775C80.3034 333.835 91.9921 334.487 102.791 333.732C114.04 332.945 122.398 331.23 127.865 328.587C133.317 325.719 135.806 320.911 135.335 314.161C134.847 307.187 130.781 302.384 123.136 299.754C115.701 296.882 103.598 293.546 86.8287 289.745C71.8746 286.043 59.9264 281.679 50.9838 276.652C42.0413 271.626 35.3745 265.196 30.9835 257.364C26.8175 249.517 24.3255 239.744 23.5074 228.045C21.0217 192.498 40.0239 170.031 80.514 160.643L78.5789 132.971L130.887 129.313L132.774 156.31C141.387 156.613 149.572 157.284 157.332 158.324C165.301 159.123 172.16 160.226 177.91 161.632L181.474 212.59C170.601 209.055 160.264 206.726 150.464 205.602C140.664 204.479 131.49 204.216 122.941 204.814C113.041 205.506 104.675 207.109 97.8427 209.621C91.0099 212.134 87.8217 216.652 88.2779 223.176C88.6712 228.801 91.8948 232.871 97.9488 235.387C104.212 237.662 115.135 240.289 130.716 243.269C148.82 246.751 162.72 251.544 172.416 257.648C182.337 263.737 189.3 271.163 193.304 279.926C197.292 288.464 199.679 298.358 200.466 309.607C201.552 325.13 197.747 338.622 189.053 350.082C180.359 361.541 166.713 370.069 148.113 375.666L150.143 404.688L97.835 408.346Z" fill="#E84341"/>
<path d="M97.835 408.346L93.346 408.66L93.6599 413.149L98.1489 412.835L97.835 408.346ZM95.9943 382.023L100.483 381.709L100.187 377.476L95.9446 377.523L95.9943 382.023ZM63.3141 380.239L62.6467 384.689L62.6941 384.696L62.7415 384.702L63.3141 380.239ZM36.7154 373.282L32.2264 373.596L32.4204 376.37L34.9886 377.437L36.7154 373.282ZM33.1757 322.661L34.7896 318.461L28.1938 315.926L28.6867 322.975L33.1757 322.661ZM67.725 331.775L68.4521 327.335L68.4521 327.335L67.725 331.775ZM127.865 328.587L129.824 332.639L129.893 332.605L129.961 332.57L127.865 328.587ZM123.136 299.754L121.515 303.952L121.593 303.982L121.672 304.009L123.136 299.754ZM86.8287 289.745L85.7473 294.113L85.7905 294.124L85.8339 294.134L86.8287 289.745ZM50.9838 276.652L48.7788 280.575L48.7788 280.575L50.9838 276.652ZM30.9835 257.364L27.0089 259.475L27.0331 259.52L27.0584 259.565L30.9835 257.364ZM80.514 160.643L81.5303 165.027L85.2708 164.16L85.003 160.329L80.514 160.643ZM78.5789 132.971L78.265 128.482L73.776 128.796L74.0899 133.285L78.5789 132.971ZM130.887 129.313L135.376 128.999L135.062 124.51L130.573 124.824L130.887 129.313ZM132.774 156.31L128.285 156.624L128.568 160.666L132.617 160.808L132.774 156.31ZM157.332 158.324L156.734 162.784L156.808 162.794L156.883 162.801L157.332 158.324ZM177.91 161.632L182.399 161.318L182.17 158.042L178.98 157.261L177.91 161.632ZM181.474 212.59L180.082 216.87L186.428 218.933L185.963 212.276L181.474 212.59ZM150.464 205.602L150.977 201.132L150.977 201.132L150.464 205.602ZM97.8427 209.621L99.3958 213.845L99.3958 213.845L97.8427 209.621ZM97.9488 235.387L96.222 239.542L96.3164 239.581L96.4125 239.616L97.9488 235.387ZM130.716 243.269L131.566 238.85L131.562 238.849L130.716 243.269ZM172.416 257.648L170.019 261.456L170.04 261.47L170.062 261.483L172.416 257.648ZM193.304 279.926L189.211 281.796L189.219 281.813L189.227 281.83L193.304 279.926ZM189.053 350.082L192.638 352.802L192.638 352.802L189.053 350.082ZM148.113 375.666L146.817 371.356L143.373 372.392L143.624 375.979L148.113 375.666ZM150.143 404.688L150.457 409.177L154.946 408.863L154.632 404.374L150.143 404.688ZM102.324 408.032L100.483 381.709L91.5053 382.337L93.346 408.66L102.324 408.032ZM95.9446 377.523C84.6085 377.649 73.9244 377.063 63.8867 375.775L62.7415 384.702C73.2352 386.048 84.3379 386.652 96.0441 386.523L95.9446 377.523ZM63.9815 375.789C53.9653 374.286 45.4724 372.047 38.4422 369.126L34.9886 377.437C42.8606 380.708 52.1001 383.107 62.6467 384.689L63.9815 375.789ZM41.2045 372.968L37.6647 322.347L28.6867 322.975L32.2264 373.596L41.2045 372.968ZM31.5618 326.862C42.339 331.003 54.1572 334.114 66.9979 336.216L68.4521 327.335C56.136 325.318 44.9213 322.353 34.7896 318.461L31.5618 326.862ZM66.9979 336.216C79.8613 338.322 91.9034 339.004 103.105 338.221L102.477 329.243C92.0808 329.97 80.7454 329.347 68.4521 327.335L66.9979 336.216ZM103.105 338.221C114.521 337.423 123.572 335.661 129.824 332.639L125.907 324.536C121.225 326.799 113.559 328.468 102.477 329.243L103.105 338.221ZM129.961 332.57C133.385 330.768 136.093 328.23 137.817 324.899C139.526 321.598 140.103 317.842 139.824 313.847L130.845 314.475C131.038 317.229 130.606 319.253 129.825 320.761C129.06 322.239 127.798 323.538 125.77 324.605L129.961 332.57ZM139.824 313.847C139.521 309.517 138.073 305.633 135.353 302.421C132.668 299.249 128.974 297.004 124.6 295.499L121.672 304.009C124.942 305.134 127.104 306.606 128.485 308.236C129.831 309.826 130.661 311.831 130.845 314.475L139.824 313.847ZM124.757 295.556C116.995 292.559 104.621 289.164 87.8235 285.357L85.8339 294.134C102.576 297.929 114.406 301.206 121.515 303.952L124.757 295.556ZM87.9101 285.377C73.1732 281.729 61.6495 277.485 53.1888 272.729L48.7788 280.575C58.2032 285.872 70.5761 290.358 85.7473 294.113L87.9101 285.377ZM53.1888 272.729C44.8621 268.049 38.8404 262.176 34.9087 255.164L27.0584 259.565C31.9087 268.216 39.2205 275.202 48.7788 280.575L53.1888 272.729ZM34.9582 255.254C31.1657 248.111 28.784 238.993 27.9964 227.731L19.0184 228.359C19.867 240.494 22.4693 250.923 27.0089 259.475L34.9582 255.254ZM27.9964 227.731C26.817 210.865 30.7409 197.596 39.3307 187.44C47.994 177.197 61.8512 169.589 81.5303 165.027L79.4976 156.259C58.6867 161.084 42.7978 169.404 32.4589 181.628C22.0464 193.939 17.7121 209.678 19.0184 228.359L27.9964 227.731ZM85.003 160.329L83.0679 132.657L74.0899 133.285L76.0249 160.957L85.003 160.329ZM78.8928 137.46L131.201 133.802L130.573 124.824L78.265 128.482L78.8928 137.46ZM126.398 129.627L128.285 156.624L137.264 155.997L135.376 128.999L126.398 129.627ZM132.617 160.808C141.096 161.105 149.134 161.765 156.734 162.784L157.93 153.863C150.011 152.802 141.677 152.12 132.932 151.813L132.617 160.808ZM156.883 162.801C164.71 163.586 171.352 164.661 176.841 166.003L178.98 157.261C172.968 155.791 165.891 154.659 157.781 153.846L156.883 162.801ZM173.421 161.946L176.985 212.904L185.963 212.276L182.399 161.318L173.421 161.946ZM182.865 208.311C171.75 204.697 161.118 202.294 150.977 201.132L149.952 210.073C159.411 211.157 169.451 213.413 180.082 216.87L182.865 208.311ZM150.977 201.132C140.943 199.981 131.489 199.705 122.627 200.325L123.254 209.303C131.491 208.727 140.386 208.977 149.952 210.073L150.977 201.132ZM122.627 200.325C112.446 201.037 103.636 202.696 96.2897 205.398L99.3958 213.845C105.715 211.521 113.637 209.976 123.254 209.303L122.627 200.325ZM96.2897 205.398C92.2844 206.87 88.9141 209.091 86.6501 212.3C84.3535 215.555 83.5022 219.391 83.7889 223.49L92.7669 222.863C92.5973 220.437 93.1121 218.752 94.0038 217.489C94.9281 216.179 96.5683 214.884 99.3958 213.845L96.2897 205.398ZM83.7889 223.49C84.0431 227.126 85.2395 230.434 87.463 233.241C89.6587 236.014 92.6709 238.067 96.222 239.542L99.6756 231.231C97.1727 230.191 95.5462 228.951 94.5182 227.653C93.5181 226.391 92.906 224.852 92.7669 222.863L83.7889 223.49ZM96.4125 239.616C103.048 242.026 114.286 244.708 129.871 247.689L131.562 238.849C115.983 235.87 105.377 233.297 99.4852 231.157L96.4125 239.616ZM129.866 247.688C147.715 251.121 160.996 255.776 170.019 261.456L174.814 253.84C164.444 247.312 149.926 242.381 131.566 238.85L129.866 247.688ZM170.062 261.483C179.382 267.203 185.65 274.002 189.211 281.796L197.397 278.056C192.95 268.323 185.292 260.27 174.77 253.813L170.062 261.483ZM189.227 281.83C192.94 289.78 195.222 299.117 195.977 309.921L204.955 309.293C204.137 297.599 201.644 287.148 197.381 278.021L189.227 281.83ZM195.977 309.921C196.993 324.453 193.447 336.844 185.468 347.362L192.638 352.802C202.047 340.399 206.11 325.807 204.955 309.293L195.977 309.921ZM185.468 347.362C177.521 357.838 164.819 365.94 146.817 371.356L149.41 379.975C168.606 374.199 183.198 365.245 192.638 352.802L185.468 347.362ZM143.624 375.979L145.654 405.002L154.632 404.374L152.602 375.352L143.624 375.979ZM149.829 400.199L97.5211 403.857L98.1489 412.835L150.457 409.177L149.829 400.199Z" fill="black"/>
</g>
</g>
<defs>
<filter id="filter0_di_2009_140" x="13.1597" y="121.349" width="193.678" height="305.266" filterUnits="userSpaceOnUse" color-interpolation-filters="sRGB">
<feFlood flood-opacity="0" result="BackgroundImageFix"/>
<feColorMatrix in="SourceAlpha" type="matrix" values="0 0 0 0 0 0 0 0 0 0 0 0 0 0 0 0 0 0 127 0" result="hardAlpha"/>
<feOffset dy="13.9742"/>
<feComposite in2="hardAlpha" operator="out"/>
<feColorMatrix type="matrix" values="0 0 0 0 0 0 0 0 0 0 0 0 0 0 0 0 0 0 1 0"/>
<feBlend mode="normal" in2="BackgroundImageFix" result="effect1_dropShadow_2009_140"/>
<feBlend mode="normal" in="SourceGraphic" in2="effect1_dropShadow_2009_140" result="shape"/>
<feColorMatrix in="SourceAlpha" type="matrix" values="0 0 0 0 0 0 0 0 0 0 0 0 0 0 0 0 0 0 127 0" result="hardAlpha"/>
<feOffset dx="-16" dy="-13"/>
<feGaussianBlur stdDeviation="2"/>
<feComposite in2="hardAlpha" operator="arithmetic" k2="-1" k3="1"/>
<feColorMatrix type="matrix" values="0 0 0 0 0 0 0 0 0 0 0 0 0 0 0 0 0 0 0.45 0"/>
<feBlend mode="normal" in2="shape" result="effect2_innerShadow_2009_140"/>
</filter>
<filter id="filter1_d_2009_140" x="13.1597" y="125.349" width="197.678" height="295.292" filterUnits="userSpaceOnUse" color-interpolation-filters="sRGB">
<feFlood flood-opacity="0" result="BackgroundImageFix"/>
<feColorMatrix in="SourceAlpha" type="matrix" values="0 0 0 0 0 0 0 0 0 0 0 0 0 0 0 0 0 0 127 0" result="hardAlpha"/>
<feOffset dy="4"/>
<feGaussianBlur stdDeviation="2"/>
<feComposite in2="hardAlpha" operator="out"/>
<feColorMatrix type="matrix" values="0 0 0 0 0 0 0 0 0 0 0 0 0 0 0 0 0 0 0.25 0"/>
<feBlend mode="normal" in2="BackgroundImageFix" result="effect1_dropShadow_2009_140"/>
<feBlend mode="normal" in="SourceGraphic" in2="effect1_dropShadow_2009_140" result="shape"/>
</filter>
</defs>
</svg>
