<svg width="188" height="190" viewBox="0 0 188 190" fill="none" xmlns="http://www.w3.org/2000/svg">
<mask id="path-1-outside-1_2009_218" maskUnits="userSpaceOnUse" x="-3.7477" y="-46.1531" width="272.215" height="278.96" fill="black">
<rect fill="white" x="-3.7477" y="-46.1531" width="272.215" height="278.96"/>
<path d="M173.131 7.75371C163.374 7.71613 152.95 7.69085 142.705 7.59822C142.474 7.58967 142.243 7.58112 141.974 7.5989C140.819 7.55616 139.524 7.55446 138.225 7.95012L138.123 7.96482C116.674 16.2682 94.8438 24.6684 73.7257 32.7991C54.567 40.1887 35.4462 47.552 16.2874 54.9417C15.791 55.1175 15.2945 55.2932 14.7601 55.4953C12.9904 56.1047 10.9666 56.8342 9.30436 58.3258C8.82614 58.7704 8.50299 59.2762 8.2706 59.8315L8.07949 60.5271C7.83411 61.7106 8.06213 62.847 8.21576 63.4721L8.31321 63.8548L9.52788 65.6009L9.78858 65.8139C40.3442 87.6635 71.4557 109.746 101.528 131.143C124.68 147.606 148.69 164.656 172.22 181.419C173.77 182.595 175.86 182.608 177.71 181.549L178.089 181.285C179.72 180.153 180.607 178.355 180.43 176.564L179.973 111.868C179.873 96.1195 179.747 80.3333 179.648 64.585C179.608 58.1396 179.541 51.6562 179.501 45.2108C179.415 34.5756 179.322 23.6073 179.323 12.8552L179.325 12.2913L179.008 11.8358C178.198 10.4282 176.334 7.6689 173.131 7.75371ZM149.048 48.1699C144.554 56.7496 139.988 65.5484 135.357 74.3357C136.425 66.8958 137.505 59.3917 138.573 51.9518C139.884 42.598 141.292 32.8963 142.664 23.3876L142.699 23.1947C142.731 22.2714 142.904 21.307 143.089 20.2784C143.215 19.5712 143.38 18.8377 143.454 18.0546C147.608 18.0419 151.826 18.0409 155.903 18.0809C158.853 18.1161 161.84 18.1249 164.865 18.1075C159.478 28.1518 154.17 38.31 149.048 48.1699ZM129.65 58.9345C128.318 68.5834 126.903 78.5159 125.473 88.3461C105.526 82.7171 85.22 77.0562 65.572 71.6138C56.6503 69.1387 47.6643 66.6519 38.7427 64.1768L38.6784 64.1652C36.707 63.6762 34.6943 63.047 32.7344 62.4937C31.4443 62.0946 30.1427 61.7598 28.8147 61.3871C34.0069 59.4713 39.1841 57.4534 44.2591 55.4501C48.7239 53.7016 53.3668 51.8857 57.9602 50.1605C83.6833 40.2403 109.444 30.2937 135.167 20.3735C133.286 33.2749 131.447 46.3165 129.65 58.9345ZM162.035 146.16C159.68 141.885 157.283 137.469 154.864 133.182C152.961 129.719 151.005 126.18 149.154 122.792C146.173 117.375 143.098 111.742 139.989 106.301L139.469 105.311C137.577 101.784 135.606 98.1421 133.484 94.6058C133.743 94.0884 134.039 93.5447 134.4 93.0126C134.785 92.3519 135.195 91.7292 135.526 90.9926C141.093 80.317 146.66 69.6414 152.291 58.9775C157.885 48.3399 163.6 37.3924 169.266 26.5356C169.334 43.9377 169.444 61.4799 169.609 78.5342C169.711 93.1547 169.835 108.211 169.891 123.088C169.959 129.008 169.966 135.082 170.019 140.899C170.048 147.409 170.08 154.085 170.188 160.709C167.398 155.89 164.658 150.981 162.035 146.16ZM32.2396 72.2938C30.7959 71.2696 29.2878 70.2338 27.9085 69.2212C46.7581 74.4861 65.7364 79.7742 84.1851 84.8671C93.7386 87.5228 103.266 90.1405 112.846 92.8341C114.688 93.2999 116.584 93.8416 118.415 94.3716C120.787 95.0326 123.212 95.7696 125.698 96.3516C127.963 100.577 130.33 104.788 132.553 108.874C134.136 111.715 135.719 114.557 137.291 117.462L137.317 117.5C138.391 119.287 139.352 121.153 140.324 122.955C141.67 125.455 144.707 131.115 144.707 131.115L144.854 131.407C149.505 139.548 154.057 147.871 158.489 155.94C160.313 159.289 162.227 162.688 164.104 166.114C163.518 165.676 162.895 165.265 162.335 164.865C160.71 163.742 159.032 162.542 157.419 161.355L145.517 152.899C107.758 126.03 70.0253 99.2 32.2396 72.2938Z"/>
</mask>
<g filter="url(#filter0_i_2009_218)">
<path d="M173.131 7.75371C163.374 7.71613 152.95 7.69085 142.705 7.59822C142.474 7.58967 142.243 7.58112 141.974 7.5989C140.819 7.55616 139.524 7.55446 138.225 7.95012L138.123 7.96482C116.674 16.2682 94.8438 24.6684 73.7257 32.7991C54.567 40.1887 35.4462 47.552 16.2874 54.9417C15.791 55.1175 15.2945 55.2932 14.7601 55.4953C12.9904 56.1047 10.9666 56.8342 9.30436 58.3258C8.82614 58.7704 8.50299 59.2762 8.2706 59.8315L8.07949 60.5271C7.83411 61.7106 8.06213 62.847 8.21576 63.4721L8.31321 63.8548L9.52788 65.6009L9.78858 65.8139C40.3442 87.6635 71.4557 109.746 101.528 131.143C124.68 147.606 148.69 164.656 172.22 181.419C173.77 182.595 175.86 182.608 177.71 181.549L178.089 181.285C179.72 180.153 180.607 178.355 180.43 176.564L179.973 111.868C179.873 96.1195 179.747 80.3333 179.648 64.585C179.608 58.1396 179.541 51.6562 179.501 45.2108C179.415 34.5756 179.322 23.6073 179.323 12.8552L179.325 12.2913L179.008 11.8358C178.198 10.4282 176.334 7.6689 173.131 7.75371ZM149.048 48.1699C144.554 56.7496 139.988 65.5484 135.357 74.3357C136.425 66.8958 137.505 59.3917 138.573 51.9518C139.884 42.598 141.292 32.8963 142.664 23.3876L142.699 23.1947C142.731 22.2714 142.904 21.307 143.089 20.2784C143.215 19.5712 143.38 18.8377 143.454 18.0546C147.608 18.0419 151.826 18.0409 155.903 18.0809C158.853 18.1161 161.84 18.1249 164.865 18.1075C159.478 28.1518 154.17 38.31 149.048 48.1699ZM129.65 58.9345C128.318 68.5834 126.903 78.5159 125.473 88.3461C105.526 82.7171 85.22 77.0562 65.572 71.6138C56.6503 69.1387 47.6643 66.6519 38.7427 64.1768L38.6784 64.1652C36.707 63.6762 34.6943 63.047 32.7344 62.4937C31.4443 62.0946 30.1427 61.7598 28.8147 61.3871C34.0069 59.4713 39.1841 57.4534 44.2591 55.4501C48.7239 53.7016 53.3668 51.8857 57.9602 50.1605C83.6833 40.2403 109.444 30.2937 135.167 20.3735C133.286 33.2749 131.447 46.3165 129.65 58.9345ZM162.035 146.16C159.68 141.885 157.283 137.469 154.864 133.182C152.961 129.719 151.005 126.18 149.154 122.792C146.173 117.375 143.098 111.742 139.989 106.301L139.469 105.311C137.577 101.784 135.606 98.1421 133.484 94.6058C133.743 94.0884 134.039 93.5447 134.4 93.0126C134.785 92.3519 135.195 91.7292 135.526 90.9926C141.093 80.317 146.66 69.6414 152.291 58.9775C157.885 48.3399 163.6 37.3924 169.266 26.5356C169.334 43.9377 169.444 61.4799 169.609 78.5342C169.711 93.1547 169.835 108.211 169.891 123.088C169.959 129.008 169.966 135.082 170.019 140.899C170.048 147.409 170.08 154.085 170.188 160.709C167.398 155.89 164.658 150.981 162.035 146.16ZM32.2396 72.2938C30.7959 71.2696 29.2878 70.2338 27.9085 69.2212C46.7581 74.4861 65.7364 79.7742 84.1851 84.8671C93.7386 87.5228 103.266 90.1405 112.846 92.8341C114.688 93.2999 116.584 93.8416 118.415 94.3716C120.787 95.0326 123.212 95.7696 125.698 96.3516C127.963 100.577 130.33 104.788 132.553 108.874C134.136 111.715 135.719 114.557 137.291 117.462L137.317 117.5C138.391 119.287 139.352 121.153 140.324 122.955C141.67 125.455 144.707 131.115 144.707 131.115L144.854 131.407C149.505 139.548 154.057 147.871 158.489 155.94C160.313 159.289 162.227 162.688 164.104 166.114C163.518 165.676 162.895 165.265 162.335 164.865C160.71 163.742 159.032 162.542 157.419 161.355L145.517 152.899C107.758 126.03 70.0253 99.2 32.2396 72.2938Z" fill="#E84341"/>
</g>
<path d="M173.131 7.75371C163.374 7.71613 152.95 7.69085 142.705 7.59822C142.474 7.58967 142.243 7.58112 141.974 7.5989C140.819 7.55616 139.524 7.55446 138.225 7.95012L138.123 7.96482C116.674 16.2682 94.8438 24.6684 73.7257 32.7991C54.567 40.1887 35.4462 47.552 16.2874 54.9417C15.791 55.1175 15.2945 55.2932 14.7601 55.4953C12.9904 56.1047 10.9666 56.8342 9.30436 58.3258C8.82614 58.7704 8.50299 59.2762 8.2706 59.8315L8.07949 60.5271C7.83411 61.7106 8.06213 62.847 8.21576 63.4721L8.31321 63.8548L9.52788 65.6009L9.78858 65.8139C40.3442 87.6635 71.4557 109.746 101.528 131.143C124.68 147.606 148.69 164.656 172.22 181.419C173.77 182.595 175.86 182.608 177.71 181.549L178.089 181.285C179.72 180.153 180.607 178.355 180.43 176.564L179.973 111.868C179.873 96.1195 179.747 80.3333 179.648 64.585C179.608 58.1396 179.541 51.6562 179.501 45.2108C179.415 34.5756 179.322 23.6073 179.323 12.8552L179.325 12.2913L179.008 11.8358C178.198 10.4282 176.334 7.6689 173.131 7.75371ZM149.048 48.1699C144.554 56.7496 139.988 65.5484 135.357 74.3357C136.425 66.8958 137.505 59.3917 138.573 51.9518C139.884 42.598 141.292 32.8963 142.664 23.3876L142.699 23.1947C142.731 22.2714 142.904 21.307 143.089 20.2784C143.215 19.5712 143.38 18.8377 143.454 18.0546C147.608 18.0419 151.826 18.0409 155.903 18.0809C158.853 18.1161 161.84 18.1249 164.865 18.1075C159.478 28.1518 154.17 38.31 149.048 48.1699ZM129.65 58.9345C128.318 68.5834 126.903 78.5159 125.473 88.3461C105.526 82.7171 85.22 77.0562 65.572 71.6138C56.6503 69.1387 47.6643 66.6519 38.7427 64.1768L38.6784 64.1652C36.707 63.6762 34.6943 63.047 32.7344 62.4937C31.4443 62.0946 30.1427 61.7598 28.8147 61.3871C34.0069 59.4713 39.1841 57.4534 44.2591 55.4501C48.7239 53.7016 53.3668 51.8857 57.9602 50.1605C83.6833 40.2403 109.444 30.2937 135.167 20.3735C133.286 33.2749 131.447 46.3165 129.65 58.9345ZM162.035 146.16C159.68 141.885 157.283 137.469 154.864 133.182C152.961 129.719 151.005 126.18 149.154 122.792C146.173 117.375 143.098 111.742 139.989 106.301L139.469 105.311C137.577 101.784 135.606 98.1421 133.484 94.6058C133.743 94.0884 134.039 93.5447 134.4 93.0126C134.785 92.3519 135.195 91.7292 135.526 90.9926C141.093 80.317 146.66 69.6414 152.291 58.9775C157.885 48.3399 163.6 37.3924 169.266 26.5356C169.334 43.9377 169.444 61.4799 169.609 78.5342C169.711 93.1547 169.835 108.211 169.891 123.088C169.959 129.008 169.966 135.082 170.019 140.899C170.048 147.409 170.08 154.085 170.188 160.709C167.398 155.89 164.658 150.981 162.035 146.16ZM32.2396 72.2938C30.7959 71.2696 29.2878 70.2338 27.9085 69.2212C46.7581 74.4861 65.7364 79.7742 84.1851 84.8671C93.7386 87.5228 103.266 90.1405 112.846 92.8341C114.688 93.2999 116.584 93.8416 118.415 94.3716C120.787 95.0326 123.212 95.7696 125.698 96.3516C127.963 100.577 130.33 104.788 132.553 108.874C134.136 111.715 135.719 114.557 137.291 117.462L137.317 117.5C138.391 119.287 139.352 121.153 140.324 122.955C141.67 125.455 144.707 131.115 144.707 131.115L144.854 131.407C149.505 139.548 154.057 147.871 158.489 155.94C160.313 159.289 162.227 162.688 164.104 166.114C163.518 165.676 162.895 165.265 162.335 164.865C160.71 163.742 159.032 162.542 157.419 161.355L145.517 152.899C107.758 126.03 70.0253 99.2 32.2396 72.2938Z" stroke="black" stroke-width="14" mask="url(#path-1-outside-1_2009_218)"/>
<defs>
<filter id="filter0_i_2009_218" x="0.969238" y="0.582092" width="186.487" height="192.737" filterUnits="userSpaceOnUse" color-interpolation-filters="sRGB">
<feFlood flood-opacity="0" result="BackgroundImageFix"/>
<feBlend mode="normal" in="SourceGraphic" in2="BackgroundImageFix" result="shape"/>
<feColorMatrix in="SourceAlpha" type="matrix" values="0 0 0 0 0 0 0 0 0 0 0 0 0 0 0 0 0 0 127 0" result="hardAlpha"/>
<feOffset dy="4"/>
<feGaussianBlur stdDeviation="2"/>
<feComposite in2="hardAlpha" operator="arithmetic" k2="-1" k3="1"/>
<feColorMatrix type="matrix" values="0 0 0 0 0 0 0 0 0 0 0 0 0 0 0 0 0 0 0.45 0"/>
<feBlend mode="normal" in2="shape" result="effect1_innerShadow_2009_218"/>
</filter>
</defs>
</svg>
