<svg width="285" height="118" viewBox="0 0 285 118" fill="none" xmlns="http://www.w3.org/2000/svg">
<path d="M234.076 102.905C234.076 94.1286 240.596 87.9854 250.249 87.9854C259.778 87.9854 266.297 94.1286 266.297 102.905C266.297 111.681 259.778 117.824 250.249 117.824C240.596 117.824 234.076 111.681 234.076 102.905Z" fill="white"/>
<path d="M196.391 48.2424C218.707 48.2424 233.752 62.5349 233.752 82.9706C233.752 103.532 218.707 117.824 196.391 117.824C173.949 117.824 158.905 103.532 158.905 82.9706C158.905 62.5349 173.949 48.2424 196.391 48.2424ZM214.194 111.179C221.466 106.666 216.2 93.7527 205.669 77.0781C195.012 60.2782 185.609 50.2484 178.463 54.7618C171.317 59.4006 176.332 72.1886 186.988 88.9885C197.645 105.663 207.048 115.693 214.194 111.179Z" fill="white"/>
<path d="M118.768 48.2424C141.084 48.2424 156.129 62.5349 156.129 82.9706C156.129 103.532 141.084 117.824 118.768 117.824C96.3264 117.824 81.2817 103.532 81.2817 82.9706C81.2817 62.5349 96.3264 48.2424 118.768 48.2424ZM136.571 111.179C143.843 106.666 138.577 93.7527 128.046 77.0781C117.389 60.2782 107.986 50.2484 100.84 54.7618C93.6936 59.4006 98.7085 72.1886 109.365 88.9885C120.022 105.663 129.425 115.693 136.571 111.179Z" fill="white"/>
<path d="M35.8565 117.824C31.3431 117.824 26.9551 117.448 22.9432 116.947H0V58.2722C0 36.7082 17.0507 31.0664 29.4625 31.0664C53.0326 31.0664 70.334 38.9649 70.334 53.6335C70.334 64.0394 61.8087 70.6841 48.5192 73.6931C65.3191 75.8244 76.728 82.4691 76.728 94.3795C76.728 109.048 59.4266 117.824 35.8565 117.824ZM28.9611 73.1916C42.752 72.9408 49.5222 63.6633 37.9879 49.2454C32.2207 41.9738 23.8208 38.4634 17.176 38.4634C8.90145 38.4634 7.89847 43.6037 9.15219 46.738C12.2865 54.135 27.4566 53.3827 27.4566 69.5558V105.538C34.8536 114.063 41.7491 116.57 48.0177 113.185C52.7818 110.553 54.0356 99.6452 47.5162 88.9885C41.8744 79.9617 34.9789 75.9498 28.9611 75.9498V73.1916Z" fill="white"/>
<g filter="url(#filter0_d_2011_43)">
<path d="M221.745 8.99227C219.733 11.085 218.573 13.9458 218.514 16.9637C216.914 17.28 215.405 17.9786 214.098 19.0077C212.792 20.0369 211.722 21.3702 210.967 22.9088C210.213 24.4474 209.794 26.1518 209.741 27.8955C209.688 29.6392 210.002 31.3775 210.661 32.9814C211.32 34.5854 212.306 36.0138 213.546 37.1608C214.787 38.3078 216.249 39.1439 217.826 39.6071C219.403 40.0703 221.052 40.1487 222.653 39.8365C224.254 39.5243 225.765 38.8294 227.074 37.8036C227.082 37.8016 227.09 37.8009 227.098 37.8017L250.02 58.7971L250.022 58.8293C249.281 60.3751 248.876 62.0835 248.837 63.8278C248.798 65.5721 249.127 67.3075 249.799 68.9053C250.471 70.5031 251.469 71.9223 252.719 73.0577C253.968 74.193 255.438 75.0153 257.018 75.4636C258.598 75.9119 260.248 75.9747 261.846 75.6473C263.445 75.3199 264.95 74.6108 266.25 73.5725C267.55 72.5342 268.612 71.1933 269.356 69.6494C270.101 68.1055 270.51 66.3982 270.553 64.654C272.153 64.3378 273.662 63.6392 274.968 62.61C276.275 61.5808 277.345 60.2475 278.099 58.7089C278.854 57.1703 279.273 55.466 279.326 53.7223C279.379 51.9786 279.064 50.2403 278.405 48.6363C277.747 47.0324 276.76 45.6039 275.52 44.4569C274.28 43.3099 272.817 42.4738 271.241 42.0106C269.664 41.5474 268.014 41.469 266.413 41.7813C264.812 42.0935 263.301 42.7883 261.993 43.8142C261.985 43.8154 261.977 43.8161 261.969 43.8161L239.046 22.8078L239.043 22.7756C240.237 20.3281 240.568 17.4954 239.98 14.7885C239.391 12.0817 237.919 9.67895 235.832 8.01386C233.744 6.34876 231.177 5.53096 228.593 5.708C226.01 5.88505 223.581 7.0453 221.744 8.97938L221.745 8.99227ZM232.966 12.1897C234.122 13.1133 234.936 14.4439 235.264 15.9429C235.592 17.4418 235.411 19.011 234.754 20.3689C234.246 21.4033 234.083 22.596 234.294 23.7505C234.504 24.9051 235.075 25.9527 235.912 26.7208L258.848 47.7443C259.687 48.5093 260.742 48.9485 261.838 48.9896C262.934 49.0306 264.007 48.6711 264.879 47.9702C265.66 47.3574 266.569 46.9575 267.53 46.8044C268.491 46.6513 269.475 46.7496 270.397 47.0909C271.32 47.4323 272.154 48.0065 272.829 48.7647C273.503 49.5229 273.999 50.4425 274.272 51.4452C274.545 52.4479 274.589 53.5039 274.399 54.5231C274.208 55.5423 273.79 56.4946 273.18 57.2987C272.57 58.1028 271.785 58.7349 270.893 59.141C270.001 59.5472 269.029 59.7154 268.058 59.6313C267.71 59.6004 267.361 59.6505 267.035 59.7781C266.708 59.9058 266.412 60.1079 266.167 60.3707C265.922 60.6334 265.734 60.9506 265.615 61.3002C265.496 61.6498 265.45 62.0237 265.479 62.396C265.49 62.5286 265.511 62.6602 265.54 62.7898C265.767 63.8039 265.763 64.859 265.527 65.8655C265.292 66.8721 264.832 67.8002 264.187 68.571C263.542 69.3417 262.731 69.9323 261.823 70.2925C260.915 70.6527 259.937 70.7718 258.971 70.6397C258.006 70.5076 257.082 70.1282 256.279 69.5338C255.475 68.9394 254.816 68.1476 254.356 67.2257C253.897 66.3038 253.651 65.2791 253.64 64.2387C253.629 63.1984 253.852 62.1733 254.292 61.2505C254.8 60.2161 254.962 59.0234 254.752 57.8688C254.541 56.7143 253.97 55.6667 253.133 54.8986L230.197 33.8751C229.359 33.1131 228.307 32.6757 227.214 32.6345C226.12 32.5933 225.05 32.9507 224.178 33.6483C223.398 34.261 222.488 34.661 221.527 34.8141C220.567 34.9671 219.583 34.8688 218.66 34.5275C217.738 34.1861 216.904 33.6119 216.229 32.8537C215.554 32.0955 215.059 31.1759 214.786 30.1732C214.512 29.1705 214.469 28.1146 214.659 27.0953C214.849 26.0761 215.267 25.1239 215.878 24.3198C216.488 23.5157 217.272 22.8836 218.164 22.4774C219.056 22.0712 220.029 21.903 220.999 21.9871C221.379 22.0206 221.759 21.9578 222.109 21.804C222.459 21.6501 222.77 21.4094 223.015 21.1015C223.261 20.7937 223.434 20.4274 223.521 20.0324C223.609 19.6374 223.607 19.2249 223.518 18.8286C223.217 17.5323 223.297 16.1725 223.747 14.9356C224.198 13.6987 224.996 12.6452 226.032 11.9194C227.069 11.1937 228.293 10.8312 229.537 10.8817C230.781 10.9322 231.985 11.3932 232.982 12.2015L232.966 12.1897Z" fill="white"/>
</g>
<defs>
<filter id="filter0_d_2011_43" x="204.113" y="0.0624628" width="80.8404" height="81.4132" filterUnits="userSpaceOnUse" color-interpolation-filters="sRGB">
<feFlood flood-opacity="0" result="BackgroundImageFix"/>
<feColorMatrix in="SourceAlpha" type="matrix" values="0 0 0 0 0 0 0 0 0 0 0 0 0 0 0 0 0 0 127 0" result="hardAlpha"/>
<feOffset/>
<feGaussianBlur stdDeviation="2.81093"/>
<feComposite in2="hardAlpha" operator="out"/>
<feColorMatrix type="matrix" values="0 0 0 0 0.909804 0 0 0 0 0.262745 0 0 0 0 0.254902 0 0 0 1 0"/>
<feBlend mode="normal" in2="BackgroundImageFix" result="effect1_dropShadow_2011_43"/>
<feBlend mode="normal" in="SourceGraphic" in2="effect1_dropShadow_2011_43" result="shape"/>
</filter>
</defs>
</svg>
