<svg width="345" height="360" viewBox="0 0 345 360" fill="none" xmlns="http://www.w3.org/2000/svg">
<path d="M24.1602 132.872C30.8971 140.829 40.1036 146.323 50.1304 148.371C60.1572 150.418 70.3488 148.885 78.8792 144.045C81.2043 142.68 83.9843 142.183 86.7555 142.637C89.5267 143.092 92.1214 144.47 94.1069 146.543L202.18 259.166C204.169 261.235 205.43 263.874 205.752 266.643C206.075 269.413 205.439 272.144 203.951 274.383C200.367 279.969 198.256 286.43 197.797 293.213C197.339 299.996 198.548 306.9 201.319 313.335C204.091 319.771 208.344 325.546 213.715 330.169C219.086 334.792 225.415 338.124 232.162 339.882C238.91 341.639 245.875 341.77 252.462 340.262C259.05 338.755 265.065 335.654 269.993 331.224C274.922 326.795 278.617 321.168 280.765 314.825C282.912 308.482 283.447 301.611 282.324 294.798C289.125 296.243 296.067 296.048 302.555 294.229C309.043 292.41 314.886 289.02 319.584 284.351C324.282 279.681 327.696 273.87 329.535 267.413C331.373 260.957 331.581 254.046 330.141 247.272C328.701 240.498 325.656 234.061 321.266 228.511C316.875 222.962 311.27 218.464 304.929 215.403C298.588 212.342 291.698 210.807 284.85 210.931C278.001 211.054 271.396 212.832 265.599 216.113C263.274 217.478 260.494 217.975 257.723 217.521C254.952 217.066 252.357 215.688 250.371 213.615L142.298 100.992C140.309 98.923 139.048 96.2836 138.726 93.5144C138.404 90.7452 139.039 88.0136 140.527 85.7753C144.111 80.1887 146.223 73.7281 146.681 66.945C147.139 60.1619 145.931 53.258 143.159 46.8226C140.387 40.3872 136.134 34.6117 130.763 29.989C125.392 25.3663 119.063 22.0339 112.316 20.2763C105.568 18.5187 98.6036 18.388 92.0159 19.8956C85.4282 21.4031 79.4133 24.504 74.4849 28.9335C69.5565 33.363 65.8609 38.9896 63.7137 45.3327C61.5665 51.6758 61.0315 58.5471 62.1544 65.3598C53.4941 63.5054 44.6493 64.3205 36.8239 67.6942C28.9984 71.0679 22.5723 76.8363 18.4201 84.2144C14.2679 91.5925 12.5912 100.222 13.6183 108.928C14.6454 117.635 18.3264 125.995 24.1602 132.872Z" fill="white"/>
<path d="M13.5517 69.4576C22.5352 59.1056 35.4742 52.9429 49.6054 52.2856C50.4265 44.2137 53.0787 36.5526 57.3655 29.8707C61.6523 23.1888 67.4636 17.6576 74.3683 13.6873C81.273 9.717 89.094 7.40952 97.251 6.93603C105.408 6.46253 113.692 7.83517 121.488 10.9521C129.284 14.0691 136.393 18.8503 142.286 24.9413C148.18 31.0322 152.707 38.2766 155.532 46.1369C158.357 53.9972 159.407 62.2718 158.605 70.347C157.803 78.4221 155.17 86.0905 150.899 92.7834C150.893 92.8231 150.893 92.864 150.9 92.9044L258.867 205.492L259.02 205.5C265.963 201.594 273.809 199.356 281.975 198.955C290.141 198.554 298.417 199.999 306.19 203.183C313.963 206.366 321.033 211.207 326.875 217.346C332.718 223.485 337.183 230.765 339.94 238.645C342.696 246.525 343.674 254.804 342.8 262.867C341.926 270.93 339.222 278.57 334.89 285.221C330.557 291.872 324.707 297.363 317.774 301.287C310.84 305.21 303.001 307.466 294.837 307.886C294.016 315.958 291.364 323.619 287.077 330.301C282.79 336.983 276.979 342.514 270.074 346.485C263.17 350.455 255.349 352.763 247.192 353.236C239.035 353.71 230.751 352.337 222.955 349.22C215.158 346.103 208.05 341.322 202.157 335.231C196.263 329.14 191.736 321.896 188.911 314.035C186.086 306.175 185.035 297.9 185.837 289.825C186.639 281.75 189.273 274.082 193.544 267.389C193.546 267.349 193.546 267.308 193.542 267.268L85.5145 154.677L85.3624 154.668C74.376 160.949 61.2263 162.953 48.2858 160.318C35.3453 157.683 23.4662 150.583 14.7918 140.298C6.11747 130.013 1.21908 117.222 0.980507 104.231C0.741962 91.2404 5.17891 78.9063 13.4908 69.4541L13.5517 69.4576ZM33.1933 125.414C38.0036 131.106 44.5822 135.038 51.7488 136.505C58.9153 137.972 66.2009 136.877 72.2983 133.418C76.94 130.742 82.4672 129.785 87.97 130.705C93.4727 131.625 98.6228 134.366 102.572 138.478L210.677 251.133C214.613 255.256 217.109 260.497 217.755 265.996C218.401 271.495 217.159 276.923 214.232 281.387C211.681 285.379 210.182 289.993 209.861 294.835C209.541 299.678 210.409 304.605 212.392 309.196C214.375 313.788 217.413 317.908 221.249 321.205C225.085 324.503 229.603 326.879 234.419 328.132C239.236 329.385 244.207 329.478 248.909 328.402C253.611 327.326 257.905 325.114 261.424 321.954C264.943 318.794 267.583 314.779 269.119 310.253C270.655 305.727 271.042 300.823 270.246 295.96C269.957 294.217 270.047 292.458 270.511 290.804C270.974 289.15 271.8 287.64 272.931 286.378C274.062 285.116 275.472 284.132 277.063 283.494C278.653 282.856 280.388 282.579 282.146 282.682C282.773 282.724 283.399 282.81 284.019 282.942C288.869 283.962 293.817 283.815 298.441 282.512C303.064 281.21 307.228 278.79 310.576 275.46C313.924 272.13 316.359 267.988 317.673 263.386C318.986 258.784 319.14 253.858 318.121 249.027C317.102 244.197 314.94 239.605 311.82 235.641C308.699 231.678 304.712 228.461 300.197 226.263C295.683 224.066 290.775 222.953 285.89 223.021C281.006 223.088 276.29 224.332 272.143 226.649C267.502 229.324 261.975 230.281 256.472 229.361C250.969 228.441 245.819 225.7 241.87 221.589L133.765 108.933C129.844 104.816 127.357 99.5857 126.711 94.1003C126.065 88.6148 127.299 83.199 130.21 78.7401C132.761 74.7478 134.261 70.1337 134.581 65.2913C134.902 60.4489 134.033 55.5219 132.051 50.9302C130.068 46.3385 127.029 42.2185 123.193 38.9214C119.358 35.6242 114.839 33.2478 110.023 31.9947C105.207 30.7416 100.236 30.6489 95.5334 31.7247C90.8313 32.8005 86.5376 35.0128 83.0185 38.1729C79.4994 41.333 76.8592 45.3473 75.3232 49.8734C73.7871 54.3995 73.4006 59.3032 74.1967 64.1664C74.5106 66.0659 74.3736 67.9822 73.7967 69.7593C73.2199 71.5364 72.2195 73.124 70.8771 74.3929C69.5346 75.6618 67.8881 76.576 66.0715 77.0612C64.2549 77.5464 62.3197 77.5888 60.4233 77.185C54.2186 75.8303 47.8737 76.3954 42.2581 78.8028C36.6425 81.2103 32.0311 85.3423 29.0558 90.6326C26.0805 95.9228 24.887 102.113 25.6388 108.353C26.3905 114.594 29.0507 120.581 33.2549 125.493L33.1933 125.414Z" fill="black"/>
</svg>
