<svg width="276" height="278" viewBox="0 0 276 278" fill="none" xmlns="http://www.w3.org/2000/svg">
<g filter="url(#filter0_i_2011_51)">
<path d="M51.3057 44.057C64.8379 35.6218 87.0509 44.5702 100.996 64.2818C114.888 83.8717 115.399 106.6 101.921 115.157C88.5644 123.66 66.2289 114.765 52.1611 95.1077C38.147 75.5718 37.8806 52.7355 51.3057 44.057ZM138.822 5.47679C154.406 1.36713 170.951 17.0269 176.153 40.4479C181.04 64.1524 172.653 86.5903 157.245 90.7677C141.715 94.999 125.292 79.2852 120.336 55.7563C115.203 32.1598 123.59 9.72183 138.822 5.47679ZM10.4727 128.885C21.8005 116.773 45.542 119.236 63.7628 133.721C81.5323 148.842 87.2458 170.439 76.0405 182.497C64.8351 194.555 41.2696 192.16 23.1864 177.323C5.10324 162.486 -0.419005 140.659 10.4727 128.885ZM230.793 31.7597C246.829 31.6636 259.206 50.4686 257.95 73.8307C256.694 97.1928 242.56 116.208 226.103 116.344C209.646 116.48 197.568 97.6892 198.403 74.3673C200.011 51.1406 214.214 31.95 230.793 31.7597ZM268.122 171.912C273.649 183.131 270.409 199.668 261.973 209.053C244.458 228.687 209.399 219.445 185.041 230.183C160.683 240.921 143.975 274 117.663 272.67C102.797 272.105 87.3849 260.013 83.1884 246.173C77.4068 227.076 95.0293 207.685 102.162 188.705C111.865 163.944 109.904 126.311 134.506 115.465C158.986 104.673 185.947 130.705 210.242 141.06C230.366 149.912 258.53 152.46 268.122 171.912Z" fill="#E84341"/>
</g>
<path d="M51.3057 44.057C64.8379 35.6218 87.0509 44.5702 100.996 64.2818C114.888 83.8717 115.399 106.6 101.921 115.157C88.5644 123.66 66.2289 114.765 52.1611 95.1077C38.147 75.5718 37.8806 52.7355 51.3057 44.057ZM138.822 5.47679C154.406 1.36713 170.951 17.0269 176.153 40.4479C181.04 64.1524 172.653 86.5903 157.245 90.7677C141.715 94.999 125.292 79.2852 120.336 55.7563C115.203 32.1598 123.59 9.72183 138.822 5.47679ZM10.4727 128.885C21.8005 116.773 45.542 119.236 63.7628 133.721C81.5323 148.842 87.2458 170.439 76.0405 182.497C64.8351 194.555 41.2696 192.16 23.1864 177.323C5.10324 162.486 -0.419005 140.659 10.4727 128.885ZM230.793 31.7597C246.829 31.6636 259.206 50.4686 257.95 73.8307C256.694 97.1928 242.56 116.208 226.103 116.344C209.646 116.48 197.568 97.6892 198.403 74.3673C200.011 51.1406 214.214 31.95 230.793 31.7597ZM268.122 171.912C273.649 183.131 270.409 199.668 261.973 209.053C244.458 228.687 209.399 219.445 185.041 230.183C160.683 240.921 143.975 274 117.663 272.67C102.797 272.105 87.3849 260.013 83.1884 246.173C77.4068 227.076 95.0293 207.685 102.162 188.705C111.865 163.944 109.904 126.311 134.506 115.465C158.986 104.673 185.947 130.705 210.242 141.06C230.366 149.912 258.53 152.46 268.122 171.912Z" stroke="black" stroke-width="9"/>
<defs>
<filter id="filter0_i_2011_51" x="-3.59375" y="-3.68286" width="278.953" height="280.892" filterUnits="userSpaceOnUse" color-interpolation-filters="sRGB">
<feFlood flood-opacity="0" result="BackgroundImageFix"/>
<feBlend mode="normal" in="SourceGraphic" in2="BackgroundImageFix" result="shape"/>
<feColorMatrix in="SourceAlpha" type="matrix" values="0 0 0 0 0 0 0 0 0 0 0 0 0 0 0 0 0 0 127 0" result="hardAlpha"/>
<feOffset dx="-12" dy="-19"/>
<feGaussianBlur stdDeviation="2"/>
<feComposite in2="hardAlpha" operator="arithmetic" k2="-1" k3="1"/>
<feColorMatrix type="matrix" values="0 0 0 0 0 0 0 0 0 0 0 0 0 0 0 0 0 0 0.45 0"/>
<feBlend mode="normal" in2="shape" result="effect1_innerShadow_2011_51"/>
</filter>
</defs>
</svg>
