<svg width="283" height="186" viewBox="0 0 283 186" fill="none" xmlns="http://www.w3.org/2000/svg">
<g filter="url(#filter0_di_2009_243)">
<mask id="path-1-outside-1_2009_243" maskUnits="userSpaceOnUse" x="-9.67304" y="-25.5227" width="320.072" height="222.159" fill="black">
<rect fill="white" x="-9.67304" y="-25.5227" width="320.072" height="222.159"/>
<path d="M168.163 27.2102C139.044 18.1344 111.828 12.6133 91.7551 11.0174C81.7184 10.2194 73.441 10.4386 67.9277 11.4967C65.1713 12.0259 63.1311 12.7795 61.9837 13.4582C60.8364 14.1363 60.6891 14.5252 60.6339 14.7022C60.5785 14.8798 60.4791 15.2829 61.0378 16.4928C61.5964 17.7033 62.8472 19.4826 64.8148 21.4841C68.7506 25.4874 75.4376 30.3707 84.1503 35.4165C86.6374 36.8572 89.3072 38.3153 92.1119 39.7819C95.1738 38.4372 103.722 39.0043 116.211 41.3807C128.7 43.7572 144.305 47.7861 160.206 52.7392C176.105 57.6965 191.239 63.2474 202.872 68.3883C214.505 73.5293 221.869 77.9211 223.633 80.7697C226.763 81.1547 229.779 81.4699 232.635 81.6966C242.671 82.4943 250.949 82.2753 256.462 81.2172C259.219 80.688 261.259 79.9344 262.406 79.2557C263.554 78.5776 263.701 78.1888 263.756 78.0117C263.811 77.8341 263.911 77.431 263.352 76.2211C262.794 75.0107 261.543 73.2313 259.575 71.2298C255.639 67.2265 248.952 62.3432 240.24 57.2974C222.815 47.2059 197.281 36.2859 168.163 27.2102ZM53.0209 23.5403L11.7329 76.639L11.6962 76.6824C10.5278 78.1199 10.3741 78.9159 10.6242 80.3974C10.8746 81.8795 11.9376 84.1343 14.1722 86.7835C18.6401 92.0821 27.4453 98.6285 39.0645 105.223C62.3023 118.411 96.7527 132.212 132.011 143.201C167.269 154.19 203.459 162.407 230.075 164.757C243.383 165.932 254.348 165.548 261.035 163.727C264.379 162.816 266.536 161.565 267.584 160.487C268.632 159.41 268.957 158.668 268.812 156.821L268.807 156.764L265 89.6103C263.008 90.435 260.826 91.0348 258.435 91.4933C251.363 92.8507 242.415 92.9708 231.807 92.1274C210.591 90.4407 182.844 84.7597 153.114 75.4933C123.383 66.227 97.3227 55.1372 78.9055 44.4709C69.6966 39.1377 62.4004 33.9543 57.3529 28.8197C55.6464 27.084 54.1915 25.3501 53.0209 23.5403Z"/>
</mask>
<path d="M168.163 27.2102C139.044 18.1344 111.828 12.6133 91.7551 11.0174C81.7184 10.2194 73.441 10.4386 67.9277 11.4967C65.1713 12.0259 63.1311 12.7795 61.9837 13.4582C60.8364 14.1363 60.6891 14.5252 60.6339 14.7022C60.5785 14.8798 60.4791 15.2829 61.0378 16.4928C61.5964 17.7033 62.8472 19.4826 64.8148 21.4841C68.7506 25.4874 75.4376 30.3707 84.1503 35.4165C86.6374 36.8572 89.3072 38.3153 92.1119 39.7819C95.1738 38.4372 103.722 39.0043 116.211 41.3807C128.7 43.7572 144.305 47.7861 160.206 52.7392C176.105 57.6965 191.239 63.2474 202.872 68.3883C214.505 73.5293 221.869 77.9211 223.633 80.7697C226.763 81.1547 229.779 81.4699 232.635 81.6966C242.671 82.4943 250.949 82.2753 256.462 81.2172C259.219 80.688 261.259 79.9344 262.406 79.2557C263.554 78.5776 263.701 78.1888 263.756 78.0117C263.811 77.8341 263.911 77.431 263.352 76.2211C262.794 75.0107 261.543 73.2313 259.575 71.2298C255.639 67.2265 248.952 62.3432 240.24 57.2974C222.815 47.2059 197.281 36.2859 168.163 27.2102ZM53.0209 23.5403L11.7329 76.639L11.6962 76.6824C10.5278 78.1199 10.3741 78.9159 10.6242 80.3974C10.8746 81.8795 11.9376 84.1343 14.1722 86.7835C18.6401 92.0821 27.4453 98.6285 39.0645 105.223C62.3023 118.411 96.7527 132.212 132.011 143.201C167.269 154.19 203.459 162.407 230.075 164.757C243.383 165.932 254.348 165.548 261.035 163.727C264.379 162.816 266.536 161.565 267.584 160.487C268.632 159.41 268.957 158.668 268.812 156.821L268.807 156.764L265 89.6103C263.008 90.435 260.826 91.0348 258.435 91.4933C251.363 92.8507 242.415 92.9708 231.807 92.1274C210.591 90.4407 182.844 84.7597 153.114 75.4933C123.383 66.227 97.3227 55.1372 78.9055 44.4709C69.6966 39.1377 62.4004 33.9543 57.3529 28.8197C55.6464 27.084 54.1915 25.3501 53.0209 23.5403Z" fill="#E84341"/>
<path d="M168.163 27.2102C139.044 18.1344 111.828 12.6133 91.7551 11.0174C81.7184 10.2194 73.441 10.4386 67.9277 11.4967C65.1713 12.0259 63.1311 12.7795 61.9837 13.4582C60.8364 14.1363 60.6891 14.5252 60.6339 14.7022C60.5785 14.8798 60.4791 15.2829 61.0378 16.4928C61.5964 17.7033 62.8472 19.4826 64.8148 21.4841C68.7506 25.4874 75.4376 30.3707 84.1503 35.4165C86.6374 36.8572 89.3072 38.3153 92.1119 39.7819C95.1738 38.4372 103.722 39.0043 116.211 41.3807C128.7 43.7572 144.305 47.7861 160.206 52.7392C176.105 57.6965 191.239 63.2474 202.872 68.3883C214.505 73.5293 221.869 77.9211 223.633 80.7697C226.763 81.1547 229.779 81.4699 232.635 81.6966C242.671 82.4943 250.949 82.2753 256.462 81.2172C259.219 80.688 261.259 79.9344 262.406 79.2557C263.554 78.5776 263.701 78.1888 263.756 78.0117C263.811 77.8341 263.911 77.431 263.352 76.2211C262.794 75.0107 261.543 73.2313 259.575 71.2298C255.639 67.2265 248.952 62.3432 240.24 57.2974C222.815 47.2059 197.281 36.2859 168.163 27.2102ZM53.0209 23.5403L11.7329 76.639L11.6962 76.6824C10.5278 78.1199 10.3741 78.9159 10.6242 80.3974C10.8746 81.8795 11.9376 84.1343 14.1722 86.7835C18.6401 92.0821 27.4453 98.6285 39.0645 105.223C62.3023 118.411 96.7527 132.212 132.011 143.201C167.269 154.19 203.459 162.407 230.075 164.757C243.383 165.932 254.348 165.548 261.035 163.727C264.379 162.816 266.536 161.565 267.584 160.487C268.632 159.41 268.957 158.668 268.812 156.821L268.807 156.764L265 89.6103C263.008 90.435 260.826 91.0348 258.435 91.4933C251.363 92.8507 242.415 92.9708 231.807 92.1274C210.591 90.4407 182.844 84.7597 153.114 75.4933C123.383 66.227 97.3227 55.1372 78.9055 44.4709C69.6966 39.1377 62.4004 33.9543 57.3529 28.8197C55.6464 27.084 54.1915 25.3501 53.0209 23.5403Z" stroke="black" stroke-width="20" mask="url(#path-1-outside-1_2009_243)"/>
</g>
<defs>
<filter id="filter0_di_2009_243" x="-3.47803" y="-3.46362" width="286.323" height="188.892" filterUnits="userSpaceOnUse" color-interpolation-filters="sRGB">
<feFlood flood-opacity="0" result="BackgroundImageFix"/>
<feColorMatrix in="SourceAlpha" type="matrix" values="0 0 0 0 0 0 0 0 0 0 0 0 0 0 0 0 0 0 127 0" result="hardAlpha"/>
<feOffset dx="4" dy="10"/>
<feComposite in2="hardAlpha" operator="out"/>
<feColorMatrix type="matrix" values="0 0 0 0 0 0 0 0 0 0 0 0 0 0 0 0 0 0 1 0"/>
<feBlend mode="normal" in2="BackgroundImageFix" result="effect1_dropShadow_2009_243"/>
<feBlend mode="normal" in="SourceGraphic" in2="effect1_dropShadow_2009_243" result="shape"/>
<feColorMatrix in="SourceAlpha" type="matrix" values="0 0 0 0 0 0 0 0 0 0 0 0 0 0 0 0 0 0 127 0" result="hardAlpha"/>
<feOffset dx="-17" dy="-23"/>
<feGaussianBlur stdDeviation="2"/>
<feComposite in2="hardAlpha" operator="arithmetic" k2="-1" k3="1"/>
<feColorMatrix type="matrix" values="0 0 0 0 0 0 0 0 0 0 0 0 0 0 0 0 0 0 0.45 0"/>
<feBlend mode="normal" in2="shape" result="effect2_innerShadow_2009_243"/>
</filter>
</defs>
</svg>
